<?xml version="1.0" standalone="no"?>
<!DOCTYPE svg PUBLIC "-//W3C//DTD SVG 20010904//EN"
 "http://www.w3.org/TR/2001/REC-SVG-20010904/DTD/svg10.dtd">
<svg version="1.0" xmlns="http://www.w3.org/2000/svg"
 width="200.000000pt" height="140.000000pt" viewBox="0 0 200.000000 140.000000"
 preserveAspectRatio="xMidYMid meet">

<g transform="translate(0.000000,140.000000) scale(0.100000,-0.100000)"
fill="#000000" stroke="none">
<path d="M1250 1134 c-52 -16 -72 -30 -88 -61 -14 -26 -15 -33 -2 -53 7 -12
12 -12 29 4 67 61 265 61 332 0 23 -20 32 -15 32 21 0 81 -171 131 -303 89z"/>
<path d="M1556 997 c-15 -31 -89 -65 -190 -86 -118 -25 -163 -46 -194 -92 -20
-29 -23 -43 -20 -93 4 -52 8 -63 40 -92 48 -43 104 -58 198 -51 80 7 169 32
176 51 9 23 -1 381 -10 363z m-66 -227 l0 -89 -37 -10 c-21 -6 -66 -11 -101
-11 -57 0 -66 3 -94 30 -24 24 -29 36 -24 58 11 45 48 69 128 82 40 7 82 16
93 21 11 4 23 8 28 8 4 1 7 -39 7 -89z"/>
<path d="M323 805 c-19 -13 -22 -24 -21 -86 0 -65 2 -71 25 -80 13 -5 37 -9
53 -9 33 0 43 -10 30 -30 -11 -17 -75 -17 -95 0 -12 10 -15 9 -15 -8 0 -30 59
-45 108 -29 31 10 38 17 40 43 4 39 -12 52 -67 56 -58 4 -68 28 -12 28 54 0
81 26 81 79 0 32 -4 40 -22 45 -40 10 -83 7 -105 -9z m82 -50 c0 -27 -3 -30
-30 -30 -21 0 -31 5 -33 18 -6 33 6 49 35 45 24 -3 28 -8 28 -33z"/>
<path d="M493 813 c-22 -4 -23 -9 -23 -89 0 -67 3 -84 15 -84 11 0 15 17 17
73 l3 72 33 -2 c26 -1 32 3 30 15 -3 17 -34 23 -75 15z"/>
<path d="M590 748 c0 -94 12 -113 72 -113 77 1 79 4 76 97 -3 70 -6 83 -20 86
-16 3 -18 -6 -18 -72 0 -80 -7 -92 -45 -82 -22 6 -24 12 -27 78 -2 60 -6 73
-20 76 -16 3 -18 -5 -18 -70z"/>
<path d="M777 813 c-16 -4 -17 -17 -15 -131 3 -111 5 -127 21 -130 14 -3 17 4
17 43 0 45 1 47 25 41 25 -7 64 7 77 28 4 6 8 37 8 68 0 48 -4 59 -22 72 -21
15 -72 19 -111 9z m91 -84 c3 -62 -11 -79 -49 -59 -15 9 -19 22 -19 66 l0 55
33 -3 c32 -3 32 -4 35 -59z"/>
<path d="M970 813 c-27 -10 -40 -36 -40 -84 0 -66 23 -92 83 -92 65 0 77 13
77 89 0 54 -3 65 -22 78 -22 16 -68 20 -98 9z m80 -42 c33 -63 -22 -145 -68
-99 -13 13 -17 100 -5 111 14 15 63 7 73 -12z"/>
<path d="M1218 473 c7 -3 16 -2 19 1 4 3 -2 6 -13 5 -11 0 -14 -3 -6 -6z"/>
<path d="M300 453 c0 -3 7 -14 15 -23 14 -15 14 -18 0 -30 -8 -7 -15 -16 -15
-21 0 -16 27 -9 45 11 18 20 18 21 -5 45 -23 24 -40 32 -40 18z"/>
<path d="M470 415 c0 -44 0 -45 33 -44 23 1 26 3 10 6 -27 5 -31 30 -5 36 16
4 16 5 0 6 -26 2 -22 29 5 34 16 3 13 5 -10 6 -33 1 -33 0 -33 -44z"/>
<path d="M580 416 c0 -26 5 -46 13 -49 22 -8 56 12 63 38 8 33 -11 55 -47 55
-28 0 -29 -2 -29 -44z m54 12 c7 -12 6 -21 -3 -32 -21 -25 -41 -19 -41 12 0
45 22 54 44 20z"/>
<path d="M711 424 c-1 -50 17 -71 48 -54 16 8 21 21 21 50 0 22 -4 40 -10 40
-5 0 -10 -18 -10 -41 0 -33 -3 -40 -17 -37 -12 2 -20 16 -24 43 l-6 40 -2 -41z"/>
<path d="M842 448 c-13 -13 -16 -47 -4 -64 10 -15 42 -25 55 -17 7 4 2 9 -13
13 -38 9 -40 55 -3 68 l28 10 -25 1 c-15 1 -31 -4 -38 -11z"/>
<path d="M961 419 c-13 -42 -7 -65 9 -39 8 12 13 13 30 3 29 -19 30 -17 13 32
-8 25 -20 45 -27 45 -7 0 -18 -18 -25 -41z m26 -1 c-3 -8 -6 -5 -6 6 -1 11 2
17 5 13 3 -3 4 -12 1 -19z"/>
<path d="M1082 448 c-19 -19 -15 -66 8 -78 11 -6 18 -15 15 -21 -4 -5 -1 -9 4
-9 6 0 11 6 11 14 0 8 6 17 13 19 6 3 2 6 -10 6 -49 2 -47 63 2 74 16 4 15 5
-5 6 -15 0 -31 -4 -38 -11z"/>
<path d="M1197 415 c-17 -49 -16 -51 13 -32 17 10 22 9 30 -3 16 -26 22 -3 9
39 -7 23 -18 41 -25 41 -7 0 -19 -20 -27 -45z m33 10 c0 -8 -4 -15 -10 -15 -5
0 -7 7 -4 15 4 8 8 15 10 15 2 0 4 -7 4 -15z"/>
<path d="M1310 436 c-18 -47 20 -88 61 -66 16 9 19 19 17 48 -3 34 -6 37 -36
40 -27 3 -34 -1 -42 -22z m60 -7 c13 -22 -1 -49 -26 -49 -18 0 -28 38 -14 55
17 20 27 19 40 -6z"/>
<path d="M1522 437 c-20 -21 -21 -25 -6 -45 8 -12 25 -22 36 -22 20 0 21 1 3
20 -17 19 -17 21 -2 38 16 17 14 32 -3 32 -4 0 -16 -10 -28 -23z"/>
</g>
</svg>
